<svg width="512" height="512" viewBox="0 0 512 512" fill="none" xmlns="http://www.w3.org/2000/svg">
  <defs>
    <linearGradient id="architectBodyColor" x1="182" y1="164" x2="332" y2="344" gradientUnits="userSpaceOnUse">
      <stop stop-color="#10B981"/>
      <stop offset="1" stop-color="#0EA5E9"/>
    </linearGradient>
    <linearGradient id="architectLaptopColor" x1="170" y1="300" x2="342" y2="404" gradientUnits="userSpaceOnUse">
      <stop stop-color="#6366F1"/>
      <stop offset="1" stop-color="#8B5CF6"/>
    </linearGradient>
  </defs>
  <ellipse cx="256" cy="236" rx="54" ry="62" fill="url(#architectBodyColor)"/>
  <ellipse cx="214" cy="210" rx="30" ry="36" fill="#A7F3D0"/>
  <ellipse cx="298" cy="210" rx="30" ry="36" fill="#A7F3D0"/>
  <circle cx="232" cy="208" r="5" fill="#0F172A"/>
  <circle cx="280" cy="208" r="5" fill="#0F172A"/>
  <path d="M240 228C245.6 233.333 266.4 233.333 272 228" stroke="#0F172A" stroke-width="6" stroke-linecap="round"/>
  <path d="M216 172L188 142" stroke="#14B8A6" stroke-width="8" stroke-linecap="round"/>
  <path d="M296 172L324 142" stroke="#14B8A6" stroke-width="8" stroke-linecap="round"/>
  <ellipse cx="194" cy="272" rx="24" ry="16" fill="#34D399"/>
  <ellipse cx="318" cy="272" rx="24" ry="16" fill="#34D399"/>
  <rect x="170" y="300" width="172" height="94" rx="12" fill="url(#architectLaptopColor)"/>
  <rect x="186" y="316" width="140" height="54" rx="8" fill="#DBEAFE"/>
  <rect x="248" y="376" width="16" height="20" rx="4" fill="#4F46E5"/>
  <rect x="212" y="394" width="88" height="10" rx="5" fill="#4F46E5"/>
</svg>
