<svg width="32" height="32" viewBox="0 0 32 32" fill="none" xmlns="http://www.w3.org/2000/svg">
  <!-- Light mode version (default) -->
  <g class="logo-light">
    <!-- Head -->
    <ellipse cx="16" cy="9" rx="3" ry="3.5" fill="#1f2937"/>
    
    <!-- Thorax (chest) -->
    <ellipse cx="16" cy="15.5" rx="3.5" ry="4" fill="#1f2937"/>
    
    <!-- Abdomen (belly) -->
    <ellipse cx="16" cy="22" rx="3" ry="4.5" fill="#1f2937"/>
    
    <!-- Antennae -->
    <path d="M14 7.5 L12 4 M18 7.5 L20 4" stroke="#1f2937" stroke-width="1.5" stroke-linecap="round"/>
    
    <!-- Legs with circuit nodes (6 legs, 3 on each side) -->
    <!-- Left side -->
    <path d="M13 13 L8 11" stroke="#1f2937" stroke-width="1.5" stroke-linecap="round"/>
    <circle cx="8" cy="11" r="1.5" fill="#1f2937"/>
    
    <path d="M12.5 16 L7 16" stroke="#1f2937" stroke-width="1.5" stroke-linecap="round"/>
    <circle cx="7" cy="16" r="1.5" fill="#1f2937"/>
    
    <path d="M13 19 L8 21" stroke="#1f2937" stroke-width="1.5" stroke-linecap="round"/>
    <circle cx="8" cy="21" r="1.5" fill="#1f2937"/>
    
    <!-- Right side -->
    <path d="M19 13 L24 11" stroke="#1f2937" stroke-width="1.5" stroke-linecap="round"/>
    <circle cx="24" cy="11" r="1.5" fill="#1f2937"/>
    
    <path d="M19.5 16 L25 16" stroke="#1f2937" stroke-width="1.5" stroke-linecap="round"/>
    <circle cx="25" cy="16" r="1.5" fill="#1f2937"/>
    
    <path d="M19 19 L24 21" stroke="#1f2937" stroke-width="1.5" stroke-linecap="round"/>
    <circle cx="24" cy="21" r="1.5" fill="#1f2937"/>
    
    <!-- Circuit connections between nodes -->
    <path d="M8 11 L8 14 L12 14" stroke="#3b82f6" stroke-width="0.8" opacity="0.6"/>
    <path d="M24 11 L24 14 L20 14" stroke="#3b82f6" stroke-width="0.8" opacity="0.6"/>
    <path d="M7 16 L10 16" stroke="#3b82f6" stroke-width="0.8" opacity="0.6"/>
    <path d="M25 16 L22 16" stroke="#3b82f6" stroke-width="0.8" opacity="0.6"/>
  </g>
  
  <!-- Dark mode version (hidden by default) -->
  <g class="logo-dark" style="display: none;">
    <!-- Head -->
    <ellipse cx="16" cy="9" rx="3" ry="3.5" fill="#f9fafb"/>
    
    <!-- Thorax (chest) -->
    <ellipse cx="16" cy="15.5" rx="3.5" ry="4" fill="#f9fafb"/>
    
    <!-- Abdomen (belly) -->
    <ellipse cx="16" cy="22" rx="3" ry="4.5" fill="#f9fafb"/>
    
    <!-- Antennae -->
    <path d="M14 7.5 L12 4 M18 7.5 L20 4" stroke="#f9fafb" stroke-width="1.5" stroke-linecap="round"/>
    
    <!-- Legs with circuit nodes (6 legs, 3 on each side) -->
    <!-- Left side -->
    <path d="M13 13 L8 11" stroke="#f9fafb" stroke-width="1.5" stroke-linecap="round"/>
    <circle cx="8" cy="11" r="1.5" fill="#f9fafb"/>
    
    <path d="M12.5 16 L7 16" stroke="#f9fafb" stroke-width="1.5" stroke-linecap="round"/>
    <circle cx="7" cy="16" r="1.5" fill="#f9fafb"/>
    
    <path d="M13 19 L8 21" stroke="#f9fafb" stroke-width="1.5" stroke-linecap="round"/>
    <circle cx="8" cy="21" r="1.5" fill="#f9fafb"/>
    
    <!-- Right side -->
    <path d="M19 13 L24 11" stroke="#f9fafb" stroke-width="1.5" stroke-linecap="round"/>
    <circle cx="24" cy="11" r="1.5" fill="#f9fafb"/>
    
    <path d="M19.5 16 L25 16" stroke="#f9fafb" stroke-width="1.5" stroke-linecap="round"/>
    <circle cx="25" cy="16" r="1.5" fill="#f9fafb"/>
    
    <path d="M19 19 L24 21" stroke="#f9fafb" stroke-width="1.5" stroke-linecap="round"/>
    <circle cx="24" cy="21" r="1.5" fill="#f9fafb"/>
    
    <!-- Circuit connections between nodes -->
    <path d="M8 11 L8 14 L12 14" stroke="#60a5fa" stroke-width="0.8" opacity="0.8"/>
    <path d="M24 11 L24 14 L20 14" stroke="#60a5fa" stroke-width="0.8" opacity="0.8"/>
    <path d="M7 16 L10 16" stroke="#60a5fa" stroke-width="0.8" opacity="0.8"/>
    <path d="M25 16 L22 16" stroke="#60a5fa" stroke-width="0.8" opacity="0.8"/>
  </g>
  
  <style>
    /* Show light version by default, hide dark */
    .logo-light { display: block; }
    .logo-dark { display: none; }
    
    /* In dark mode, show dark version, hide light */
    @media (prefers-color-scheme: dark) {
      .logo-light { display: none; }
      .logo-dark { display: block; }
    }
  </style>
</svg>

